<svg width="150" height="70" viewBox="0 0 150 70" fill="none" xmlns="http://www.w3.org/2000/svg">
<g filter="url(#filter0_d_2_9)">
<path d="M28.4146 52C27.9746 52 27.6146 51.86 27.3346 51.58C27.0546 51.3 26.9146 50.94 26.9146 50.5L26.9146 19.42H16.2346C15.7946 19.42 15.4346 19.28 15.1546 19C14.8746 18.68 14.7346 18.32 14.7346 17.92L14.7346 11.5C14.7346 11.06 14.8746 10.7 15.1546 10.42C15.4346 10.14 15.7946 10 16.2346 10L48.5146 10C48.9546 10 49.3146 10.14 49.5946 10.42C49.8746 10.7 50.0146 11.06 50.0146 11.5V17.92C50.0146 18.32 49.8746 18.68 49.5946 19C49.3146 19.28 48.9546 19.42 48.5146 19.42L37.8346 19.42V50.5C37.8346 50.94 37.6946 51.3 37.4146 51.58C37.1346 51.86 36.7746 52 36.3346 52H28.4146ZM74.4876 10L74.6676 10.6L74.2476 11.08L73.8276 10.6L74.0076 10.24L74.4876 10ZM76.7676 10.54V11.02L76.3476 10.96L76.1676 10.66L76.4076 10.18L76.7676 10.54ZM66.5076 10.48L66.9876 11.02L66.6876 11.74L66.0876 11.44L65.7876 10.84L66.5076 10.48ZM73.1676 10.78C73.5276 11.02 73.6676 11.38 73.5876 11.86C73.5076 12.1 73.3876 12.22 73.2276 12.22C73.1076 12.18 72.9276 12.18 72.6876 12.22C72.4876 12.22 72.3276 12.24 72.2076 12.28C72.0876 12.28 71.9876 12.18 71.9076 11.98C71.7876 11.74 71.8876 11.48 72.2076 11.2C72.3676 11.04 72.5076 10.9 72.6276 10.78C72.7476 10.66 72.9276 10.66 73.1676 10.78ZM69.8676 11.32C70.1076 11.6 70.3076 11.82 70.4676 11.98C70.6676 12.14 70.6476 12.38 70.4076 12.7C70.2076 12.98 69.9876 13.08 69.7476 13C69.5476 12.88 69.2676 12.76 68.9076 12.64C68.5476 12.52 68.3676 12.24 68.3676 11.8C68.3676 11.36 68.5476 11.08 68.9076 10.96C69.3076 10.84 69.6276 10.96 69.8676 11.32ZM81.8676 11.14L81.4476 11.5L81.0876 11.38L81.0276 11.02L81.3876 10.9L81.8676 11.14ZM65.1876 11.32L65.1276 11.92L64.7676 12.34L64.4076 11.8L64.6476 11.44L65.1876 11.32ZM79.9476 11.98C80.2276 12.22 80.4476 12.42 80.6076 12.58C80.7676 12.74 80.7676 13 80.6076 13.36C80.4476 13.72 80.2476 13.9 80.0076 13.9C79.8076 13.9 79.5076 13.88 79.1076 13.84C78.7476 13.8 78.4676 13.74 78.2676 13.66C78.1076 13.58 77.9876 13.38 77.9076 13.06C77.8276 12.66 77.8076 12.36 77.8476 12.16C77.9276 11.92 78.1476 11.7 78.5076 11.5C78.8276 11.3 79.0676 11.26 79.2276 11.38C79.4276 11.5 79.6676 11.7 79.9476 11.98ZM75.6876 11.8C76.0076 11.84 76.1876 11.96 76.2276 12.16C76.3076 12.32 76.3676 12.58 76.4076 12.94C76.4476 13.26 76.4476 13.52 76.4076 13.72C76.3676 13.88 76.1876 14.02 75.8676 14.14C75.5476 14.3 75.2876 14.34 75.0876 14.26C74.9276 14.18 74.7476 14 74.5476 13.72C74.3476 13.52 74.2876 13.36 74.3676 13.24C74.4876 13.08 74.6276 12.88 74.7876 12.64C74.9476 12.36 75.0476 12.14 75.0876 11.98C75.1676 11.78 75.3676 11.72 75.6876 11.8ZM63.5676 12.34L63.3876 12.7L62.9676 12.76L62.7276 12.28L63.2076 11.98L63.5676 12.34ZM83.4276 12.34C83.5876 12.54 83.6076 12.7 83.4876 12.82C83.3676 12.9 83.2276 13.04 83.0676 13.24C82.9476 13.36 82.8476 13.46 82.7676 13.54C82.6876 13.62 82.5676 13.62 82.4076 13.54C82.0076 13.42 81.8076 13.2 81.8076 12.88C81.8076 12.64 81.8676 12.5 81.9876 12.46C82.1076 12.42 82.2676 12.36 82.4676 12.28C82.7076 12.24 82.8876 12.2 83.0076 12.16C83.1676 12.08 83.3076 12.14 83.4276 12.34ZM66.5676 12.88C66.8476 13.08 66.9476 13.34 66.8676 13.66C66.7476 14.1 66.5076 14.32 66.1476 14.32C65.9476 14.32 65.8276 14.26 65.7876 14.14C65.7876 14.02 65.7476 13.86 65.6676 13.66C65.6276 13.46 65.5676 13.32 65.4876 13.24C65.4476 13.12 65.5076 13 65.6676 12.88C65.9476 12.68 66.2476 12.68 66.5676 12.88ZM85.7676 12.82L86.0676 13.24L85.7676 13.54H85.2876V13L85.7676 12.82ZM61.7076 13.54C61.9476 13.98 61.8876 14.36 61.5276 14.68C61.2876 14.88 61.0876 14.98 60.9276 14.98C60.8076 14.98 60.6276 14.9 60.3876 14.74C60.1476 14.62 60.0276 14.5 60.0276 14.38C60.0276 14.26 60.0476 14.08 60.0876 13.84C60.1676 13.56 60.2076 13.34 60.2076 13.18C60.2476 13.02 60.4076 12.92 60.6876 12.88C61.1676 12.84 61.5076 13.06 61.7076 13.54ZM71.1876 13.24V13.6L70.6476 13.42L70.8276 12.94L71.1876 13.24ZM62.9676 13.48L62.7876 13.84L62.4276 13.9L62.1876 13.48L62.5476 13.24L62.9676 13.48ZM84.4476 13.6L84.6876 14.14L84.2076 14.44L83.9076 14.02L83.8476 13.48L84.4476 13.6ZM70.1076 14.38L69.6876 15.1L68.9676 14.98V14.38L69.3876 13.9L70.1076 14.38ZM86.0076 14.14L86.3676 14.62L86.1276 15.04H85.5876L85.3476 14.38L86.0076 14.14ZM73.0476 14.5L73.2876 15.16L72.5676 15.22L72.2076 14.86L72.4476 14.26L73.0476 14.5ZM81.0876 14.56L80.9076 14.98L80.5476 14.92L80.3076 14.56L80.7276 14.26L81.0876 14.56ZM63.6876 14.56C64.0076 14.68 64.1276 14.86 64.0476 15.1C63.9676 15.34 63.9276 15.62 63.9276 15.94C63.9276 16.26 63.9476 16.54 63.9876 16.78C64.0276 16.98 63.8876 17.12 63.5676 17.2C63.2476 17.28 63.0276 17.24 62.9076 17.08C62.8276 16.92 62.6876 16.7 62.4876 16.42C62.3276 16.14 62.1876 15.92 62.0676 15.76C61.9876 15.6 62.0276 15.4 62.1876 15.16C62.4676 14.84 62.6876 14.64 62.8476 14.56C63.0476 14.44 63.3276 14.44 63.6876 14.56ZM88.2876 15.4C88.3276 15.6 88.3476 15.78 88.3476 15.94C88.3876 16.06 88.3076 16.16 88.1076 16.24C87.9076 16.36 87.7476 16.4 87.6276 16.36C87.5476 16.28 87.4076 16.16 87.2076 16C86.9276 15.72 86.8476 15.46 86.9676 15.22C87.0876 14.94 87.1876 14.74 87.2676 14.62C87.3476 14.5 87.5276 14.46 87.8076 14.5C88.0476 14.54 88.1676 14.64 88.1676 14.8C88.2076 14.96 88.2476 15.16 88.2876 15.4ZM71.4876 14.74L71.5476 15.22L71.0676 15.52L70.7076 14.98L71.0676 14.68L71.4876 14.74ZM66.0876 14.74L66.2076 15.34L65.9676 15.88L65.3076 15.58L65.4876 14.98L66.0876 14.74ZM67.9476 14.98L67.8876 15.7L67.5276 16.24L66.9276 15.76L67.1676 15.1L67.9476 14.98ZM84.8076 15.58C85.2076 15.9 85.4676 16.18 85.5876 16.42C85.7476 16.62 85.7476 16.98 85.5876 17.5C85.4676 17.94 85.2676 18.2 84.9876 18.28C84.7076 18.36 84.3276 18.4 83.8476 18.4C83.4076 18.4 83.0676 18.34 82.8276 18.22C82.6276 18.1 82.4476 17.82 82.2876 17.38C82.1676 16.94 82.1476 16.6 82.2276 16.36C82.3076 16.12 82.5276 15.86 82.8876 15.58C83.2876 15.3 83.6076 15.16 83.8476 15.16C84.0876 15.16 84.4076 15.3 84.8076 15.58ZM78.6876 16.18C79.0476 16.58 79.2476 16.92 79.2876 17.2C79.3676 17.44 79.2876 17.76 79.0476 18.16C78.6876 18.76 78.4076 19.24 78.2076 19.6C78.0076 19.92 77.5676 20 76.8876 19.84C76.2076 19.68 75.8076 19.42 75.6876 19.06C75.6076 18.66 75.5276 18.12 75.4476 17.44C75.4076 16.88 75.4876 16.48 75.6876 16.24C75.8876 16 76.2476 15.76 76.7676 15.52C77.2476 15.32 77.6076 15.3 77.8476 15.46C78.0876 15.58 78.3676 15.82 78.6876 16.18ZM73.7076 15.7L73.9476 16.12L73.7676 16.72L73.2276 16.36V15.82L73.7076 15.7ZM60.9276 16.06L60.9876 16.6L60.5676 16.9L60.1476 16.54L60.3876 16L60.9276 16.06ZM59.0076 16.3C59.2076 16.5 59.3276 16.68 59.3676 16.84C59.4476 16.96 59.4276 17.16 59.3076 17.44C59.1476 17.68 58.9876 17.78 58.8276 17.74C58.6676 17.7 58.4676 17.66 58.2276 17.62C57.9476 17.58 57.7276 17.54 57.5676 17.5C57.4476 17.46 57.3676 17.3 57.3276 17.02C57.2876 16.78 57.3276 16.62 57.4476 16.54C57.6076 16.46 57.8076 16.36 58.0476 16.24C58.2476 16.16 58.4076 16.1 58.5276 16.06C58.6876 16.02 58.8476 16.1 59.0076 16.3ZM90.1476 16.72L90.2676 17.26L89.7276 17.44L89.4276 16.96L89.6676 16.42L90.1476 16.72ZM66.5076 16.66L66.8076 17.26L66.2676 17.8L65.6676 17.38L65.8476 16.72L66.5076 16.66ZM73.0476 18.4C73.0876 18.96 73.0076 19.36 72.8076 19.6C72.6076 19.8 72.2476 20.02 71.7276 20.26C71.2876 20.46 70.9676 20.46 70.7676 20.26C70.6076 20.06 70.3676 19.8 70.0476 19.48C69.7676 19.12 69.5276 18.84 69.3276 18.64C69.1276 18.44 69.1476 18.14 69.3876 17.74C69.6276 17.26 69.8676 16.96 70.1076 16.84C70.3876 16.68 70.7876 16.66 71.3076 16.78C71.9076 16.86 72.3276 17 72.5676 17.2C72.8076 17.4 72.9676 17.8 73.0476 18.4ZM65.7276 18.76C66.4076 19.4 66.6876 19.98 66.5676 20.5C66.4476 20.98 66.1876 21.64 65.7876 22.48C65.4276 23.2 65.0676 23.66 64.7076 23.86C64.3476 24.06 63.7876 24.12 63.0276 24.04C62.1876 23.92 61.5676 23.74 61.1676 23.5C60.8076 23.26 60.5476 22.74 60.3876 21.94C60.2276 21.02 60.2276 20.34 60.3876 19.9C60.5476 19.46 61.0276 19.04 61.8276 18.64C62.6676 18.16 63.3476 17.9 63.8676 17.86C64.3876 17.78 65.0076 18.08 65.7276 18.76ZM57.5076 19C57.5476 19.28 57.5676 19.52 57.5676 19.72C57.6076 19.88 57.4876 20.02 57.2076 20.14C56.9276 20.26 56.7476 20.24 56.6676 20.08C56.5876 19.92 56.4476 19.72 56.2476 19.48C56.0876 19.32 55.9676 19.2 55.8876 19.12C55.8476 19 55.8876 18.84 56.0076 18.64C56.1676 18.36 56.2876 18.16 56.3676 18.04C56.4876 17.88 56.6876 17.82 56.9676 17.86C57.2876 17.94 57.4476 18.08 57.4476 18.28C57.4476 18.44 57.4676 18.68 57.5076 19ZM90.1476 18.58C90.3076 18.9 90.3476 19.14 90.2676 19.3C90.2276 19.46 90.0876 19.64 89.8476 19.84C89.6476 20.04 89.4676 20.1 89.3076 20.02C89.1876 19.9 89.0276 19.78 88.8276 19.66C88.5876 19.5 88.3876 19.4 88.2276 19.36C88.0676 19.28 88.0076 19.1 88.0476 18.82C88.1676 18.3 88.4876 18.02 89.0076 17.98C89.3276 17.94 89.5676 17.96 89.7276 18.04C89.8876 18.12 90.0276 18.3 90.1476 18.58ZM87.2076 18.4L87.4476 19.06L86.7276 19.36L86.1876 18.76L86.6076 18.1L87.2076 18.4ZM67.7076 18.64L67.3476 19.12L66.8076 18.94V18.4L67.2876 18.16L67.7076 18.64ZM59.4876 18.88L59.6076 19.78L58.8276 19.96L58.4076 19.42L58.7676 18.94L59.4876 18.88ZM81.8076 18.94L82.1076 19.48L81.7476 19.96L81.1476 19.84V19.12L81.8076 18.94ZM91.9476 20.5C91.9876 20.74 91.9876 20.94 91.9476 21.1C91.9476 21.22 91.8276 21.34 91.5876 21.46C91.1876 21.7 90.8276 21.64 90.5076 21.28C90.3076 21.12 90.2076 20.98 90.2076 20.86C90.2476 20.7 90.3276 20.5 90.4476 20.26C90.5676 20.02 90.6676 19.84 90.7476 19.72C90.8676 19.6 91.0676 19.56 91.3476 19.6C91.5876 19.64 91.7276 19.74 91.7676 19.9C91.8476 20.02 91.9076 20.22 91.9476 20.5ZM74.2476 20.32L74.0676 20.8L73.6476 20.62L73.4076 20.2L73.8876 20.02L74.2476 20.32ZM86.4876 20.08C86.7276 20.16 86.9076 20.22 87.0276 20.26C87.1876 20.26 87.2676 20.38 87.2676 20.62C87.2676 20.86 87.2076 21.02 87.0876 21.1C87.0076 21.18 86.8476 21.26 86.6076 21.34C86.4476 21.42 86.3276 21.42 86.2476 21.34C86.2076 21.26 86.1276 21.14 86.0076 20.98C85.8876 20.86 85.7876 20.76 85.7076 20.68C85.6276 20.6 85.6476 20.48 85.7676 20.32C85.8876 20.08 86.1276 20 86.4876 20.08ZM82.8876 20.38L83.3076 20.92L82.7076 21.22L82.1676 21.16L82.3476 20.56L82.8876 20.38ZM84.3876 20.38L84.7476 20.8L84.5076 21.16L83.9676 21.34L83.9076 20.74L84.3876 20.38ZM68.3076 21.04L68.0076 21.64L67.4076 21.46L67.2876 20.86L67.8276 20.62L68.3076 21.04ZM81.3276 20.8L81.6276 21.76L80.8476 22.18L80.1276 21.7L80.4276 20.8H81.3276ZM88.4676 20.98L88.6476 21.4H87.9876V20.92L88.4676 20.98ZM77.4876 21.34L77.3676 22.06L76.5276 22.12L76.4076 21.4L76.9476 20.92L77.4876 21.34ZM79.1076 21.28L79.4076 21.76L79.2276 22.18L78.8676 22.06L78.5076 21.58L79.1076 21.28ZM69.9876 21.34L70.1676 22L69.9276 22.72L69.3276 22.24L69.4476 21.76L69.9876 21.34ZM58.5876 22.24C58.7076 22.6 58.7276 22.88 58.6476 23.08C58.5676 23.24 58.3676 23.44 58.0476 23.68C57.7676 23.88 57.5276 23.96 57.3276 23.92C57.1676 23.88 56.9476 23.76 56.6676 23.56C56.2676 23.24 56.1476 22.82 56.3076 22.3C56.4676 21.86 56.8076 21.64 57.3276 21.64C57.6876 21.64 57.9476 21.66 58.1076 21.7C58.3076 21.74 58.4676 21.92 58.5876 22.24ZM54.7476 21.7L55.3476 22.18L54.9876 22.72H54.5076L54.2076 22.18L54.7476 21.7ZM88.2876 23.32C88.3276 23.64 88.2676 23.88 88.1076 24.04C87.9876 24.16 87.7676 24.3 87.4476 24.46C87.0876 24.58 86.7876 24.68 86.5476 24.76C86.3476 24.8 86.1276 24.66 85.8876 24.34C85.6476 24.06 85.5676 23.82 85.6476 23.62C85.7676 23.42 85.9276 23.14 86.1276 22.78C86.3276 22.46 86.4876 22.22 86.6076 22.06C86.7676 21.86 87.0276 21.82 87.3876 21.94C87.7876 22.02 88.0276 22.16 88.1076 22.36C88.1876 22.56 88.2476 22.88 88.2876 23.32ZM89.9076 21.88L90.3276 22.66L89.5476 22.78L88.7676 22.54L89.2476 21.88H89.9076ZM92.8476 22.48C93.0476 22.84 92.9876 23.2 92.6676 23.56C92.4676 23.76 92.2876 23.9 92.1276 23.98C92.0076 24.06 91.8276 24.04 91.5876 23.92C91.1476 23.76 90.9476 23.4 90.9876 22.84C91.0276 22.36 91.2876 22.06 91.7676 21.94C92.2476 21.86 92.6076 22.04 92.8476 22.48ZM67.8876 22.66L67.8276 23.2L67.2876 23.08L66.9276 22.6L67.5276 22.24L67.8876 22.66ZM84.1476 22.96C84.5876 23.24 84.7476 23.52 84.6276 23.8C84.5476 24.08 84.4476 24.44 84.3276 24.88C84.2476 25.28 84.1276 25.56 83.9676 25.72C83.8476 25.88 83.5876 25.98 83.1876 26.02C82.7876 26.06 82.4876 26.02 82.2876 25.9C82.1276 25.74 81.9876 25.46 81.8676 25.06C81.7076 24.66 81.6076 24.34 81.5676 24.1C81.5676 23.86 81.7476 23.6 82.1076 23.32C82.5076 23 82.8276 22.8 83.0676 22.72C83.3476 22.6 83.7076 22.68 84.1476 22.96ZM54.9876 24.1L54.8076 24.7L53.9676 24.58L54.0276 23.74L54.7476 23.5L54.9876 24.1ZM89.9676 24.1L89.6076 24.52L89.1876 24.34L89.0676 23.8L89.6076 23.62L89.9676 24.1ZM59.7876 23.8L60.2076 24.1L59.8476 24.4L59.4276 24.34L59.2476 23.8H59.7876ZM79.3476 24.16L79.2276 24.64L78.8076 24.58L78.5076 24.16L78.9876 23.92L79.3476 24.16ZM67.7076 24.82C67.8676 25.14 67.8276 25.42 67.5876 25.66C67.3476 25.94 67.0476 26 66.6876 25.84C66.4476 25.68 66.2476 25.56 66.0876 25.48C65.9676 25.4 65.9276 25.22 65.9676 24.94C66.0476 24.46 66.3476 24.18 66.8676 24.1C67.1476 24.06 67.3276 24.12 67.4076 24.28C67.4876 24.4 67.5876 24.58 67.7076 24.82ZM80.9676 24.64L80.6076 25.24L79.9476 25.18L80.0076 24.58L80.4276 24.22L80.9676 24.64ZM56.3076 24.28L56.7876 24.76L56.5476 25.36L56.0076 25.18L55.8876 24.76L56.3076 24.28ZM61.5276 25.18L61.3476 25.9L60.5676 25.84L60.4476 25L61.1076 24.82L61.5276 25.18ZM90.6276 25.06C90.9476 25.18 91.1276 25.34 91.1676 25.54C91.2076 25.7 91.2076 25.96 91.1676 26.32C91.1276 26.84 90.8676 27.14 90.3876 27.22C90.0676 27.3 89.8076 27.34 89.6076 27.34C89.4476 27.34 89.2876 27.2 89.1276 26.92C88.9276 26.6 88.8476 26.36 88.8876 26.2C88.9276 26 89.0476 25.78 89.2476 25.54C89.4876 25.26 89.6876 25.08 89.8476 25C90.0476 24.88 90.3076 24.9 90.6276 25.06ZM92.4276 25.06L92.1876 25.6L91.7076 25.72L91.4676 25.18L91.9476 25L92.4276 25.06ZM59.0076 25.54L58.9476 26.08L58.3476 26.2V25.66L58.5876 25.18L59.0076 25.54ZM86.3676 25.24L86.2476 25.96L85.7076 25.84L85.4676 25.48L85.7676 25.18L86.3676 25.24ZM63.6276 25.3C63.9476 25.34 64.1276 25.46 64.1676 25.66C64.2076 25.86 64.2676 26.12 64.3476 26.44C64.3876 26.76 64.4076 27.02 64.4076 27.22C64.4476 27.42 64.3276 27.6 64.0476 27.76C63.7676 27.88 63.5476 27.88 63.3876 27.76C63.2676 27.64 63.0876 27.46 62.8476 27.22C62.6476 27.02 62.5076 26.86 62.4276 26.74C62.3476 26.62 62.3676 26.42 62.4876 26.14C62.6476 25.82 62.7876 25.6 62.9076 25.48C63.0276 25.32 63.2676 25.26 63.6276 25.3ZM55.4076 25.78L55.2876 26.5L54.6276 26.8L54.2676 26.08L54.6876 25.42L55.4076 25.78ZM57.2676 25.9C57.5476 25.94 57.7076 26.04 57.7476 26.2C57.8276 26.32 57.8676 26.5 57.8676 26.74C57.8676 27.06 57.6676 27.3 57.2676 27.46C57.0276 27.58 56.7876 27.48 56.5476 27.16C56.3876 26.96 56.3876 26.74 56.5476 26.5C56.7076 26.3 56.8076 26.14 56.8476 26.02C56.8876 25.86 57.0276 25.82 57.2676 25.9ZM79.1076 26.38L79.3476 27.04L78.7476 27.22L78.3876 26.92V26.32L79.1076 26.38ZM92.6676 26.86L92.7876 27.34L92.3676 28L91.6476 27.4L92.0076 26.68L92.6676 26.86ZM67.4676 26.92L67.7076 27.58L66.9876 27.76L66.6876 27.22L66.9276 26.74L67.4676 26.92ZM84.7476 26.86L84.6876 27.4L84.2676 27.82L83.9676 27.28L84.1476 26.74L84.7476 26.86ZM60.2076 26.8L60.2676 27.28L59.9676 27.64L59.5476 27.34L59.6076 26.8H60.2076ZM81.4476 26.98C81.9676 26.98 82.3076 27.24 82.4676 27.76C82.5876 28.16 82.6876 28.48 82.7676 28.72C82.8876 28.96 82.7676 29.2 82.4076 29.44C82.0476 29.68 81.7676 29.72 81.5676 29.56C81.4076 29.4 81.1476 29.18 80.7876 28.9C80.4676 28.66 80.2076 28.48 80.0076 28.36C79.8076 28.2 79.7676 27.92 79.8876 27.52C80.0476 27.12 80.2476 26.94 80.4876 26.98C80.7276 26.98 81.0476 26.98 81.4476 26.98ZM87.6876 27.94C87.8476 28.26 87.9676 28.52 88.0476 28.72C88.1676 28.92 88.0876 29.16 87.8076 29.44C87.5276 29.72 87.2876 29.82 87.0876 29.74C86.8876 29.62 86.6276 29.46 86.3076 29.26C86.0276 29.1 85.8276 28.96 85.7076 28.84C85.5876 28.72 85.5476 28.5 85.5876 28.18C85.6676 27.82 85.7676 27.6 85.8876 27.52C86.0476 27.4 86.2876 27.32 86.6076 27.28C87.0876 27.24 87.4476 27.46 87.6876 27.94ZM55.2876 28.06L54.9276 28.48L54.1476 28.66L54.0876 27.7L54.8676 27.4L55.2876 28.06ZM62.0076 28V28.48L61.5276 28.36L61.2876 28L61.7076 27.7L62.0076 28ZM91.5276 27.94L91.4076 28.36L91.1076 28.54L90.7476 28.3L90.9876 27.82L91.5276 27.94ZM59.1276 28.48L59.3076 28.84L59.1276 29.26L58.7676 29.02L58.5876 28.48H59.1276ZM63.2676 28.48L63.3876 29.08L62.9676 29.32L62.4876 29.14L62.7276 28.66L63.2676 28.48ZM57.5076 28.66C57.7476 28.9 57.8476 29.1 57.8076 29.26C57.8076 29.42 57.7476 29.66 57.6276 29.98C57.5476 30.18 57.4276 30.28 57.2676 30.28C57.1476 30.28 56.9476 30.28 56.6676 30.28C56.3876 30.28 56.1476 30.3 55.9476 30.34C55.7876 30.34 55.6676 30.2 55.5876 29.92C55.5076 29.64 55.5476 29.46 55.7076 29.38C55.8676 29.26 56.0676 29.12 56.3076 28.96C56.5476 28.8 56.7476 28.68 56.9076 28.6C57.0676 28.48 57.2676 28.5 57.5076 28.66ZM93.3276 28.96L92.9076 29.5L92.2476 29.68L92.1276 28.96L92.6676 28.54L93.3276 28.96ZM66.7476 29.56C67.1476 29.8 67.4276 30.02 67.5876 30.22C67.7476 30.42 67.7676 30.76 67.6476 31.24C67.5276 31.8 67.3876 32.24 67.2276 32.56C67.0676 32.84 66.7076 33 66.1476 33.04C65.5076 33.08 65.0476 33 64.7676 32.8C64.5276 32.56 64.2876 32.16 64.0476 31.6C63.8476 31.04 63.7876 30.62 63.8676 30.34C63.9476 30.02 64.2276 29.68 64.7076 29.32C65.1076 28.96 65.4276 28.84 65.6676 28.96C65.9476 29.08 66.3076 29.28 66.7476 29.56ZM84.3276 29.08L84.8076 29.32L84.5676 29.8L84.0876 29.74L83.9676 29.32L84.3276 29.08ZM89.4876 29.8V30.46L88.8276 30.4L88.7076 29.92L89.0076 29.38L89.4876 29.8ZM78.8676 29.62L79.1076 30.1L78.6276 30.16L78.1476 29.98L78.4476 29.38L78.8676 29.62ZM60.8676 29.68C61.1076 29.8 61.3076 29.88 61.4676 29.92C61.6676 29.96 61.7476 30.12 61.7076 30.4C61.6276 30.72 61.5076 30.92 61.3476 31C61.2276 31.04 61.0076 31.08 60.6876 31.12C60.4476 31.16 60.3076 31.12 60.2676 31C60.2276 30.88 60.1476 30.7 60.0276 30.46C59.8676 30.14 59.8876 29.88 60.0876 29.68C60.2476 29.52 60.5076 29.52 60.8676 29.68ZM54.6876 30.1L54.5076 30.52L54.0276 30.4L53.9676 29.8L54.5076 29.68L54.6876 30.1ZM84.5076 31.18C85.2676 31.86 85.6876 32.46 85.7676 32.98C85.8476 33.5 85.7076 34.22 85.3476 35.14C84.9476 36.02 84.5076 36.58 84.0276 36.82C83.5876 37.06 82.8876 37.14 81.9276 37.06C81.0876 36.98 80.5876 36.72 80.4276 36.28C80.3076 35.8 80.1476 35.16 79.9476 34.36C79.7476 33.4 79.5476 32.64 79.3476 32.08C79.1476 31.52 79.4476 31 80.2476 30.52C81.1676 29.96 81.9076 29.76 82.4676 29.92C83.0276 30.08 83.7076 30.5 84.5076 31.18ZM63.1476 30.4L62.9076 31L62.1276 30.94L62.0676 30.16L62.6676 30.1L63.1476 30.4ZM87.3276 31L87.2076 31.72L86.7876 32.2L86.3676 31.66L86.4876 30.88L87.3276 31ZM91.5876 32.68C91.7476 33.16 91.8476 33.54 91.8876 33.82C91.9676 34.1 91.8076 34.38 91.4076 34.66C90.8476 35.02 90.4076 35.26 90.0876 35.38C89.7676 35.5 89.3476 35.36 88.8276 34.96C88.3476 34.6 88.1876 34.26 88.3476 33.94C88.5476 33.58 88.7476 33.12 88.9476 32.56C89.1476 32.08 89.3076 31.72 89.4276 31.48C89.5476 31.2 89.8676 31.06 90.3876 31.06C90.9076 31.06 91.2076 31.22 91.2876 31.54C91.3676 31.82 91.4676 32.2 91.5876 32.68ZM55.4676 31.48L55.2876 31.84L54.7476 31.78L54.8676 31.3L55.1676 31.12L55.4676 31.48ZM59.3676 31.12L59.4276 31.72L58.9476 32.14L58.5276 31.66L58.8276 31.18L59.3676 31.12ZM57.5076 31.48C57.7876 31.64 57.8876 31.92 57.8076 32.32C57.7276 32.56 57.6676 32.74 57.6276 32.86C57.5876 32.98 57.4476 33.06 57.2076 33.1C56.9676 33.14 56.7876 33.1 56.6676 32.98C56.5876 32.86 56.5076 32.7 56.4276 32.5C56.3476 32.34 56.3276 32.22 56.3676 32.14C56.4476 32.02 56.5676 31.9 56.7276 31.78C56.8876 31.66 57.0076 31.56 57.0876 31.48C57.1676 31.36 57.3076 31.36 57.5076 31.48ZM61.8276 31.9L61.8876 32.5L61.3476 32.68L61.1676 32.2L61.3476 31.84L61.8276 31.9ZM62.7276 32.5L62.9676 32.86L62.6676 33.4L62.3076 33.04L62.1276 32.5H62.7276ZM55.3476 32.98L55.1076 33.7L54.4476 33.4L54.1476 32.8L54.8076 32.56L55.3476 32.98ZM64.1076 32.62L64.2276 33.1L63.9276 33.52L63.5076 33.16L63.6276 32.74L64.1076 32.62ZM61.2876 34.42C61.3676 34.9 61.3876 35.28 61.3476 35.56C61.3476 35.8 61.1276 36.02 60.6876 36.22C60.2076 36.5 59.8276 36.62 59.5476 36.58C59.3076 36.54 58.9876 36.34 58.5876 35.98C58.2676 35.66 58.1676 35.38 58.2876 35.14C58.4476 34.9 58.6276 34.58 58.8276 34.18C59.0276 33.74 59.1676 33.4 59.2476 33.16C59.3676 32.88 59.6476 32.76 60.0876 32.8C60.6076 32.88 60.9076 33.06 60.9876 33.34C61.0676 33.58 61.1676 33.94 61.2876 34.42ZM68.7876 33.4L68.4876 33.88L68.0076 33.64V33.22L68.3676 33.1L68.7876 33.4ZM87.1476 33.7L87.7476 34.06L87.3276 34.6H86.6676V33.94L87.1476 33.7ZM67.1076 34.3L66.9276 34.78L66.3276 34.84L66.2676 34.24L66.6876 33.94L67.1076 34.3ZM63.6276 34.42L63.3276 34.96L62.7276 34.9L62.6676 34.3L63.1476 33.94L63.6276 34.42ZM65.0076 34.12L65.4876 34.48L65.1276 34.96L64.5876 34.84L64.5276 34.3L65.0076 34.12ZM57.2676 34.72L56.8476 35.14L56.2476 35.32L56.1876 34.6L56.7276 34.42L57.2676 34.72ZM55.1676 35.26L55.5276 35.62L55.2876 36.04L54.5676 36.28V35.44L55.1676 35.26ZM88.4076 36.28C88.4476 36.68 88.2876 36.96 87.9276 37.12C87.6876 37.2 87.4876 37.26 87.3276 37.3C87.2076 37.3 87.0476 37.2 86.8476 37C86.5276 36.64 86.4876 36.26 86.7276 35.86C86.9676 35.42 87.3276 35.24 87.8076 35.32C88.0476 35.4 88.1876 35.52 88.2276 35.68C88.3076 35.8 88.3676 36 88.4076 36.28ZM92.8476 35.92L93.2076 36.64L92.3676 37L91.8276 36.28L92.2476 35.5L92.8476 35.92ZM65.3676 35.68L65.6676 36.16L65.1276 36.52L64.7076 36.22L64.9476 35.8L65.3676 35.68ZM64.0476 36.34L63.6876 36.7L63.1476 36.88V36.28L63.5676 35.98L64.0476 36.34ZM57.2676 36.22L57.3276 36.82L56.7876 36.88L56.3676 36.52L56.7276 36.04L57.2676 36.22ZM90.7476 36.22L90.6876 36.82L90.0876 36.88L89.8476 36.4L90.2676 36.16L90.7476 36.22ZM66.9276 36.28L67.4076 37L66.7476 37.66L66.0876 37.18L66.2676 36.52L66.9276 36.28ZM68.7276 36.58L68.7876 37.18L68.3076 37L68.1276 36.7L68.3676 36.4L68.7276 36.58ZM61.6476 37.42L61.3476 37.84L60.6876 37.96L60.7476 37.24L61.2876 36.88L61.6476 37.42ZM65.3076 37.12L65.1276 37.66L64.6476 37.9L64.2276 37.36L64.7076 37L65.3076 37.12ZM92.2476 37.48L92.1276 38.08L91.5276 37.9L91.2876 37.48L91.7676 37.18L92.2476 37.48ZM85.1676 37.18C85.4476 37.18 85.6276 37.24 85.7076 37.36C85.7876 37.48 85.8676 37.66 85.9476 37.9C86.0276 38.1 86.0076 38.24 85.8876 38.32C85.7676 38.36 85.6276 38.44 85.4676 38.56C85.2276 38.68 85.0276 38.68 84.8676 38.56C84.6276 38.4 84.5476 38.2 84.6276 37.96C84.7076 37.72 84.7476 37.54 84.7476 37.42C84.7876 37.26 84.9276 37.18 85.1676 37.18ZM55.7676 37.48V38.26L55.0476 38.32L54.8676 37.84L55.0476 37.24L55.7676 37.48ZM80.7876 38.44C80.8676 38.68 80.8676 38.86 80.7876 38.98C80.7476 39.1 80.6276 39.24 80.4276 39.4C80.2276 39.52 80.0676 39.56 79.9476 39.52C79.8676 39.44 79.7276 39.34 79.5276 39.22C79.2876 39.06 79.2076 38.84 79.2876 38.56C79.3676 38.36 79.4276 38.2 79.4676 38.08C79.5076 37.92 79.6276 37.84 79.8276 37.84C80.3076 37.84 80.6276 38.04 80.7876 38.44ZM63.8676 38.26L63.6276 38.62L63.1476 38.8L63.0876 38.26L63.4476 38.02L63.8676 38.26ZM90.6276 40.3C90.9876 40.9 91.2476 41.4 91.4076 41.8C91.6076 42.16 91.4676 42.62 90.9876 43.18C90.4676 43.78 90.0076 44.14 89.6076 44.26C89.2076 44.34 88.6276 44.24 87.8676 43.96C87.1476 43.68 86.7276 43.34 86.6076 42.94C86.4876 42.54 86.4476 41.96 86.4876 41.2C86.5676 40.36 86.6276 39.7 86.6676 39.22C86.7476 38.7 87.2076 38.34 88.0476 38.14C88.8876 37.94 89.4076 38.08 89.6076 38.56C89.8476 39 90.1876 39.58 90.6276 40.3ZM92.6076 38.44L92.7876 38.98L92.4276 39.34L91.9476 39.16L92.0076 38.56L92.6076 38.44ZM83.0676 38.62L83.2476 39.28L82.6476 39.34L82.3476 39.04L82.5876 38.74L83.0676 38.62ZM58.9476 39.04C59.4276 39.08 59.7676 39.16 59.9676 39.28C60.2076 39.4 60.3676 39.7 60.4476 40.18C60.6076 40.86 60.7476 41.4 60.8676 41.8C60.9876 42.2 60.7476 42.58 60.1476 42.94C59.4276 43.34 58.8476 43.54 58.4076 43.54C58.0076 43.5 57.5076 43.2 56.9076 42.64C56.2676 42.08 55.8876 41.6 55.7676 41.2C55.6876 40.76 55.8076 40.14 56.1276 39.34C56.4076 38.7 56.7676 38.48 57.2076 38.68C57.6476 38.84 58.2276 38.96 58.9476 39.04ZM69.2076 39.46C70.4076 40.18 71.1676 40.88 71.4876 41.56C71.8476 42.2 71.8676 43.2 71.5476 44.56C71.3476 45.36 71.0276 45.88 70.5876 46.12C70.1876 46.32 69.6876 46.4 69.0876 46.36C68.4876 46.32 67.7876 46.34 66.9876 46.42C65.9476 46.5 65.1476 46.5 64.5876 46.42C64.0276 46.3 63.5676 45.76 63.2076 44.8C62.8476 43.88 62.8876 43.24 63.3276 42.88C63.7676 42.52 64.3476 42.02 65.0676 41.38C65.6676 40.9 66.1476 40.44 66.5076 40C66.8676 39.52 67.2476 39.22 67.6476 39.1C68.0476 38.94 68.5676 39.06 69.2076 39.46ZM78.6276 39.7L78.2676 40.42L77.6076 40.12L77.4876 39.4L78.1476 39.16L78.6276 39.7ZM83.7876 39.76L84.0876 40.36L83.5476 40.72L83.0676 40.42L83.3076 40L83.7876 39.76ZM79.8876 40.24L79.8276 40.9H79.1676L78.8076 40.36L79.2876 39.88L79.8876 40.24ZM81.9876 40.3L82.5276 40.72L81.9876 41.32L81.1476 41.08L81.2676 40.18L81.9876 40.3ZM76.2876 40.84C76.5676 41.12 76.6476 41.44 76.5276 41.8C76.3676 42.12 76.0876 42.26 75.6876 42.22C75.4076 42.18 75.1876 42.14 75.0276 42.1C74.9076 42.06 74.8076 41.92 74.7276 41.68C74.6876 41.4 74.7076 41.2 74.7876 41.08C74.8676 40.96 75.0476 40.82 75.3276 40.66C75.5276 40.54 75.6876 40.5 75.8076 40.54C75.9276 40.58 76.0876 40.68 76.2876 40.84ZM55.3476 40.96L55.2276 41.44L54.8076 41.32L54.4476 40.9L54.9876 40.54L55.3476 40.96ZM84.3876 41.44L84.5076 41.98L84.0276 42.46L83.6076 41.92L83.6676 41.14L84.3876 41.44ZM73.0476 41.26L73.1076 41.98L72.7476 42.4L72.0876 42.1L72.3276 41.44L73.0476 41.26ZM80.8476 41.38L81.0276 41.92L80.6076 42.22L80.2476 41.98V41.38H80.8476ZM77.9076 41.62L78.3876 41.86L78.2076 42.4L77.6076 42.34L77.4876 41.86L77.9076 41.62ZM79.4676 42.1L79.8276 42.52L79.4676 42.88L79.1076 42.82L78.9876 42.34L79.4676 42.1ZM74.6076 42.7L74.7276 43.24L74.2476 43.54L73.7076 43.12L74.1276 42.7H74.6076ZM56.7876 43.36L56.4876 43.84H56.0076L55.7076 43.36L56.2476 42.88L56.7876 43.36ZM82.9476 43.12C83.5476 43.36 83.9076 43.64 84.0276 43.96C84.1476 44.28 84.1876 44.76 84.1476 45.4C84.1076 45.96 83.9476 46.32 83.6676 46.48C83.3876 46.6 82.9876 46.72 82.4676 46.84C81.9076 47 81.4676 47.1 81.1476 47.14C80.8276 47.14 80.5076 46.9 80.1876 46.42C79.8676 45.9 79.7476 45.48 79.8276 45.16C79.9076 44.84 80.1476 44.46 80.5476 44.02C80.9476 43.54 81.2876 43.22 81.5676 43.06C81.8876 42.86 82.3476 42.88 82.9476 43.12ZM78.8076 44.32C78.8476 44.72 78.7476 44.96 78.5076 45.04C78.2676 45.12 77.9876 45.24 77.6676 45.4C77.3076 45.52 77.0276 45.64 76.8276 45.76C76.6276 45.88 76.3876 45.8 76.1076 45.52C75.8676 45.2 75.7676 44.94 75.8076 44.74C75.8476 44.5 75.9676 44.2 76.1676 43.84C76.3676 43.52 76.5476 43.28 76.7076 43.12C76.8676 42.96 77.1476 42.94 77.5476 43.06C77.9876 43.14 78.2876 43.26 78.4476 43.42C78.6476 43.58 78.7676 43.88 78.8076 44.32ZM85.3476 43.48L85.9476 43.78L85.4676 44.26L84.9276 44.44L84.8076 43.78L85.3476 43.48ZM60.1476 43.66L60.3876 44.02L60.2076 44.38L59.8476 44.2L59.7276 43.78L60.1476 43.66ZM72.9276 43.66L73.4676 44.14L73.0476 44.8L72.2676 44.56V43.78L72.9276 43.66ZM59.1276 44.44C59.4076 44.56 59.5476 44.7 59.5476 44.86C59.5876 45.02 59.5876 45.26 59.5476 45.58C59.5076 45.98 59.2676 46.24 58.8276 46.36C58.5476 46.4 58.3276 46.42 58.1676 46.42C58.0476 46.42 57.9076 46.3 57.7476 46.06C57.5876 45.78 57.4876 45.56 57.4476 45.4C57.4476 45.24 57.5676 45.04 57.8076 44.8C58.0076 44.52 58.1876 44.36 58.3476 44.32C58.5476 44.24 58.8076 44.28 59.1276 44.44ZM61.1076 44.62L61.4676 44.92L61.2876 45.34L60.9276 45.28L60.6876 44.92L61.1076 44.62ZM87.1476 45.04L87.5076 45.64L87.0876 45.94H86.6076L86.6676 45.46L87.1476 45.04ZM88.7676 45.28L88.9476 45.88L88.7676 46.36L88.1076 46.24L88.1676 45.58L88.7676 45.28ZM75.0276 45.58C75.1876 45.78 75.2276 45.94 75.1476 46.06C75.0676 46.18 74.9676 46.34 74.8476 46.54C74.6476 46.74 74.5076 46.94 74.4276 47.14C74.3476 47.3 74.1676 47.34 73.8876 47.26C73.5676 47.14 73.3276 47.02 73.1676 46.9C73.0476 46.74 72.9876 46.48 72.9876 46.12C72.9876 45.8 73.0876 45.64 73.2876 45.64C73.5276 45.6 73.7876 45.54 74.0676 45.46C74.3076 45.38 74.4876 45.34 74.6076 45.34C74.7676 45.3 74.9076 45.38 75.0276 45.58ZM85.6476 46L85.5276 46.48L84.9276 46.42L85.0476 45.94L85.3476 45.76L85.6476 46ZM60.9276 46.54V47.02L60.5076 46.48L60.9276 46.54ZM87.1476 46.84L87.7476 47.44L87.3276 48.16L86.7276 47.8V47.32L87.1476 46.84ZM72.2676 47.08L72.0276 47.38L71.5476 47.5V46.96L72.2676 47.08ZM62.6676 47.26L63.2076 47.98L62.6076 48.58L62.0076 48.28L62.0676 47.68L62.6676 47.26ZM84.9876 48.1C85.0276 48.34 85.0476 48.52 85.0476 48.64C85.0476 48.76 84.9676 48.86 84.8076 48.94C84.5276 49.1 84.3076 49.22 84.1476 49.3C83.9876 49.34 83.8076 49.26 83.6076 49.06C83.3676 48.82 83.2476 48.62 83.2476 48.46C83.2876 48.3 83.3876 48.08 83.5476 47.8C83.6676 47.56 83.7876 47.42 83.9076 47.38C84.0276 47.34 84.2276 47.34 84.5076 47.38C84.7076 47.42 84.8276 47.5 84.8676 47.62C84.9076 47.74 84.9476 47.9 84.9876 48.1ZM80.6076 47.8L80.3076 48.34L79.8276 48.28L79.5876 47.74L80.0676 47.62L80.6076 47.8ZM75.4476 48.34C75.7276 48.58 75.8076 48.86 75.6876 49.18C75.5676 49.54 75.3076 49.7 74.9076 49.66C74.5476 49.62 74.3076 49.42 74.1876 49.06C74.1476 48.82 74.1276 48.64 74.1276 48.52C74.1676 48.4 74.2876 48.26 74.4876 48.1C74.6876 47.98 74.8476 47.96 74.9676 48.04C75.0876 48.08 75.2476 48.18 75.4476 48.34ZM73.2276 48.1L73.0476 48.76L72.5676 48.58L72.7476 48.04L73.2276 48.1ZM78.0276 48.04C78.3076 48.04 78.5076 48.24 78.6276 48.64C78.7076 49.04 78.6276 49.32 78.3876 49.48C78.0676 49.68 77.7676 49.66 77.4876 49.42C77.2076 49.22 77.1476 48.94 77.3076 48.58C77.4276 48.22 77.6676 48.04 78.0276 48.04ZM60.8076 48.28L61.2876 48.64L60.9276 49L60.5076 48.94L60.3876 48.52L60.8076 48.28ZM71.7876 48.52L72.0876 49.06L71.5476 49.18L71.1276 48.94L71.3076 48.4L71.7876 48.52ZM65.4876 48.94C65.7276 49.06 65.8676 49.2 65.9076 49.36C65.9476 49.48 65.9476 49.68 65.9076 49.96C65.8676 50.28 65.6276 50.48 65.1876 50.56C64.9476 50.6 64.7476 50.62 64.5876 50.62C64.4676 50.62 64.3476 50.52 64.2276 50.32C64.0676 50.04 63.9876 49.82 63.9876 49.66C63.9876 49.5 64.0876 49.32 64.2876 49.12C64.6076 48.76 65.0076 48.7 65.4876 48.94ZM70.1076 49.12C70.1876 49.36 70.2276 49.56 70.2276 49.72C70.2676 49.84 70.1676 49.98 69.9276 50.14C69.7276 50.3 69.5476 50.38 69.3876 50.38C69.2676 50.34 69.1076 50.26 68.9076 50.14C68.7076 50.02 68.6076 49.9 68.6076 49.78C68.6076 49.66 68.6276 49.5 68.6676 49.3C68.7476 49.02 68.9476 48.86 69.2676 48.82C69.5076 48.82 69.6876 48.82 69.8076 48.82C69.9276 48.82 70.0276 48.92 70.1076 49.12ZM83.1276 49.3L83.2476 49.78L82.8276 50.26L82.4076 49.78L82.4676 49.18L83.1276 49.3ZM81.3876 49.48C81.6676 49.56 81.8076 49.78 81.8076 50.14C81.8076 50.46 81.6476 50.68 81.3276 50.8C81.1276 50.84 80.9676 50.86 80.8476 50.86C80.7276 50.86 80.5876 50.78 80.4276 50.62C80.2276 50.3 80.2676 49.98 80.5476 49.66C80.7476 49.38 81.0276 49.32 81.3876 49.48ZM63.0276 49.48L63.4476 49.96L63.0276 50.38L62.5476 50.32L62.4876 49.78L63.0276 49.48ZM78.9876 50.26L79.1676 50.98L78.5076 51.34L77.8476 50.92L78.3876 50.44L78.9876 50.26ZM76.8876 50.62L76.9476 51.22L76.1676 50.86L76.4076 50.38L76.8876 50.62ZM71.6076 51.04L71.3676 51.52L70.6476 51.7V50.98L71.1876 50.56L71.6076 51.04ZM74.7276 50.74L74.7876 51.1L74.3676 51.28L74.1876 50.92L74.3676 50.56L74.7276 50.74ZM67.8276 51.28L67.5876 51.7H66.9276L67.0476 50.98L67.5876 50.8L67.8276 51.28ZM72.9276 51.04L73.4076 51.4L73.1676 51.94L72.6876 51.82L72.4476 51.34L72.9276 51.04ZM69.5076 51.1L69.9876 51.34L69.6276 51.76L69.2076 51.64L69.0876 51.22L69.5076 51.1ZM101.499 52C101.059 52 100.699 51.86 100.419 51.58C100.139 51.3 99.9988 50.94 99.9988 50.5V11.5C99.9988 11.06 100.139 10.7 100.419 10.42C100.699 10.14 101.059 10 101.499 10H109.059C109.499 10 109.859 10.14 110.139 10.42C110.419 10.7 110.559 11.06 110.559 11.5V24.82L121.659 11.14C121.819 10.9 122.079 10.66 122.439 10.42C122.839 10.14 123.359 10 123.999 10L132.639 10C132.999 10 133.299 10.14 133.539 10.42C133.779 10.66 133.899 10.94 133.899 11.26C133.899 11.54 133.819 11.78 133.659 11.98L119.319 30.1L134.799 50.02C134.959 50.18 135.039 50.42 135.039 50.74C135.039 51.06 134.899 51.36 134.619 51.64C134.379 51.88 134.099 52 133.779 52H124.839C124.119 52 123.559 51.84 123.159 51.52C122.799 51.2 122.559 50.96 122.439 50.8L110.559 35.98V50.5C110.559 50.94 110.419 51.3 110.139 51.58C109.859 51.86 109.499 52 109.059 52H101.499Z" fill="white"/>
</g>
<defs>
<filter id="filter0_d_2_9" x="0.734619" y="0" width="148.304" height="70" filterUnits="userSpaceOnUse" color-interpolation-filters="sRGB">
<feFlood flood-opacity="0" result="BackgroundImageFix"/>
<feColorMatrix in="SourceAlpha" type="matrix" values="0 0 0 0 0 0 0 0 0 0 0 0 0 0 0 0 0 0 127 0" result="hardAlpha"/>
<feOffset dy="4"/>
<feGaussianBlur stdDeviation="7"/>
<feComposite in2="hardAlpha" operator="out"/>
<feColorMatrix type="matrix" values="0 0 0 0 0 0 0 0 0 0 0 0 0 0 0 0 0 0 0.25 0"/>
<feBlend mode="normal" in2="BackgroundImageFix" result="effect1_dropShadow_2_9"/>
<feBlend mode="normal" in="SourceGraphic" in2="effect1_dropShadow_2_9" result="shape"/>
</filter>
</defs>
</svg>
