<svg width="22" height="22" viewBox="0 0 22 22" fill="none" xmlns="http://www.w3.org/2000/svg">
<path d="M20.6 9.2H11.2V12.9H16.7C16.6 13.8 16 15.2 14.7 16.1C13.9 16.7 12.7 17.1 11.2 17.1C8.60001 17.1 6.30001 15.4 5.50001 12.9C5.30001 12.3 5.20001 11.6 5.20001 10.9C5.20001 10.2 5.30001 9.5 5.50001 8.9C5.60001 8.7 5.60001 8.5 5.70001 8.4C6.60001 6.3 8.70001 4.8 11.2 4.8C13.1 4.8 14.3 5.6 15.1 6.3L17.9 3.5C16.2 2 13.9 1 11.2 1C7.30001 1 3.90001 3.2 2.30001 6.5C1.60001 7.9 1.20001 9.4 1.20001 11C1.20001 12.6 1.60001 14.1 2.30001 15.5C3.90001 18.8 7.30001 21 11.2 21C13.9 21 16.2 20.1 17.8 18.6C19.7 16.9 20.8 14.3 20.8 11.2C20.8 10.4 20.7 9.8 20.6 9.2V9.2Z" stroke="#131313" stroke-width="1.5" stroke-miterlimit="10" stroke-linecap="round" stroke-linejoin="round"/>
</svg>
